# xmcd CD database file
# Copyright (C) 1993-1996 Ti Kan
#
# Track frame offsets:
# 150
# 10797
# 22900
# 35025
# 46472
# 56975
# 68385
# 79445
# 89767
# 100385
# 112060
# 122620
# 132837
# 143140
# 153537
# 163297
# 173267
# 184337
# 196167
# 207447
# 217662
# 229475
# 239487
# 250615
# 260530
# 271955
# 281872
# 293507
# 305310
# 315257
# 326620
#
# Disc length: 4531 seconds
#
# Revision: 0
# Processed by: cddbd v1.4b41PL1 Copyright (c) Steve Scherf et al.
# Submitted via: inCDius 1.1b5
#
DISCID=c311b11f
DTITLE=Justin Tubb - Rock It Down To My House - Disc 1
DYEAR=1900
DGENRE=
TTITLE0=I'm A Darn Good Man
TTITLE1=The Story Of My Life
TTITLE2=Ooh La La
TTITLE3=Give Three Cheers For My Baby
TTITLE4=Somebody Ughed On You
TTITLE5=Something Called The Blues
TTITLE6=I'm Looking For A Date Tonight
TTITLE7=You're The Prettiest Thing That Ever Happened To Me
TTITLE8=Who Will It Be
TTITLE9=Sufferin' Heart
TTITLE10=Looking Back To See 
TTITLE11=I Miss You So
TTITLE12=Who Will It Be
TTITLE13=My Heart's Not For Little Girls To Play With
TTITLE14=Little Bit Waltz
TTITLE15=I'm Sorry I Stayed Away So Long
TTITLE16=Sure Fire Kisses
TTITLE17=Fickle Heart
TTITLE18=Waterloo
TTITLE19=I Gotta Go Get My Baby 
TTITLE20=Chuga -Chuga Chica Mauga 
TTITLE21=I'm A Darn Good Man
TTITLE22=All Alone
TTITLE23=Within Your Arms
TTITLE24=Who Will It Be
TTITLE25=Pepper Hot Baby
TTITLE26=Lucky Lucky Someone Else
TTITLE27=You Nearly Lose Your Mind
TTITLE28=Oh How I Miss You
TTITLE29=Desert Blues
TTITLE30=Miss The Mississippi And You
EXTD=
EXTT0=
EXTT1=
EXTT2=
EXTT3=
EXTT4=
EXTT5=
EXTT6=
EXTT7=
EXTT8=
EXTT9=
EXTT10=With Goldie Hill
EXTT11=With Goldie Hill
EXTT12=
EXTT13=
EXTT14=
EXTT15=
EXTT16=With Goldie Hill
EXTT17=With Goldie Hill
EXTT18=With Goldie Hill
EXTT19=
EXTT20=
EXTT21=
EXTT22=
EXTT23=
EXTT24=
EXTT25=
EXTT26=
EXTT27=
EXTT28=
EXTT29=
EXTT30=
PLAYORDER=
